<svg id="visual" viewBox="0 0 1920 1080" width="1920" height="1080" xmlns="http://www.w3.org/2000/svg" xmlns:xlink="http://www.w3.org/1999/xlink" version="1.1"><rect x="0" y="0" width="1920" height="1080" fill="#000000"></rect><path d="M0 731L45.7 741.3C91.3 751.7 182.7 772.3 274.2 789C365.7 805.7 457.3 818.3 548.8 824.5C640.3 830.7 731.7 830.3 823 813.2C914.3 796 1005.7 762 1097 761C1188.3 760 1279.7 792 1371.2 799.7C1462.7 807.3 1554.3 790.7 1645.8 780.2C1737.3 769.7 1828.7 765.3 1874.3 763.2L1920 761L1920 1081L1874.3 1081C1828.7 1081 1737.3 1081 1645.8 1081C1554.3 1081 1462.7 1081 1371.2 1081C1279.7 1081 1188.3 1081 1097 1081C1005.7 1081 914.3 1081 823 1081C731.7 1081 640.3 1081 548.8 1081C457.3 1081 365.7 1081 274.2 1081C182.7 1081 91.3 1081 45.7 1081L0 1081Z" fill="#5db78c"></path><path d="M0 817L45.7 818.5C91.3 820 182.7 823 274.2 818C365.7 813 457.3 800 548.8 794.2C640.3 788.3 731.7 789.7 823 804.3C914.3 819 1005.7 847 1097 860.5C1188.3 874 1279.7 873 1371.2 857.3C1462.7 841.7 1554.3 811.3 1645.8 801.5C1737.3 791.7 1828.7 802.3 1874.3 807.7L1920 813L1920 1081L1874.3 1081C1828.7 1081 1737.3 1081 1645.8 1081C1554.3 1081 1462.7 1081 1371.2 1081C1279.7 1081 1188.3 1081 1097 1081C1005.7 1081 914.3 1081 823 1081C731.7 1081 640.3 1081 548.8 1081C457.3 1081 365.7 1081 274.2 1081C182.7 1081 91.3 1081 45.7 1081L0 1081Z" fill="#64c193"></path><path d="M0 832L45.7 840.2C91.3 848.3 182.7 864.7 274.2 864.2C365.7 863.7 457.3 846.3 548.8 853.7C640.3 861 731.7 893 823 906.5C914.3 920 1005.7 915 1097 900.3C1188.3 885.7 1279.7 861.3 1371.2 852.2C1462.7 843 1554.3 849 1645.8 858.2C1737.3 867.3 1828.7 879.7 1874.3 885.8L1920 892L1920 1081L1874.3 1081C1828.7 1081 1737.3 1081 1645.8 1081C1554.3 1081 1462.7 1081 1371.2 1081C1279.7 1081 1188.3 1081 1097 1081C1005.7 1081 914.3 1081 823 1081C731.7 1081 640.3 1081 548.8 1081C457.3 1081 365.7 1081 274.2 1081C182.7 1081 91.3 1081 45.7 1081L0 1081Z" fill="#6ccb9a"></path><path d="M0 919L45.7 921.2C91.3 923.3 182.7 927.7 274.2 927.7C365.7 927.7 457.3 923.3 548.8 920.8C640.3 918.3 731.7 917.7 823 919.7C914.3 921.7 1005.7 926.3 1097 932C1188.3 937.7 1279.7 944.3 1371.2 936.7C1462.7 929 1554.3 907 1645.8 896.8C1737.3 886.7 1828.7 888.3 1874.3 889.2L1920 890L1920 1081L1874.3 1081C1828.7 1081 1737.3 1081 1645.8 1081C1554.3 1081 1462.7 1081 1371.2 1081C1279.7 1081 1188.3 1081 1097 1081C1005.7 1081 914.3 1081 823 1081C731.7 1081 640.3 1081 548.8 1081C457.3 1081 365.7 1081 274.2 1081C182.7 1081 91.3 1081 45.7 1081L0 1081Z" fill="#74d5a2"></path><path d="M0 939L45.7 941.2C91.3 943.3 182.7 947.7 274.2 947.2C365.7 946.7 457.3 941.3 548.8 944.3C640.3 947.3 731.7 958.7 823 970.3C914.3 982 1005.7 994 1097 999C1188.3 1004 1279.7 1002 1371.2 995C1462.7 988 1554.3 976 1645.8 973.5C1737.3 971 1828.7 978 1874.3 981.5L1920 985L1920 1081L1874.3 1081C1828.7 1081 1737.3 1081 1645.8 1081C1554.3 1081 1462.7 1081 1371.2 1081C1279.7 1081 1188.3 1081 1097 1081C1005.7 1081 914.3 1081 823 1081C731.7 1081 640.3 1081 548.8 1081C457.3 1081 365.7 1081 274.2 1081C182.7 1081 91.3 1081 45.7 1081L0 1081Z" fill="#7cdfa9"></path><path d="M0 1042L45.7 1042.5C91.3 1043 182.7 1044 274.2 1043.3C365.7 1042.7 457.3 1040.3 548.8 1034C640.3 1027.7 731.7 1017.3 823 1011.3C914.3 1005.3 1005.7 1003.7 1097 1009.2C1188.3 1014.7 1279.7 1027.3 1371.2 1034C1462.7 1040.7 1554.3 1041.3 1645.8 1039.3C1737.3 1037.3 1828.7 1032.7 1874.3 1030.3L1920 1028L1920 1081L1874.3 1081C1828.7 1081 1737.3 1081 1645.8 1081C1554.3 1081 1462.7 1081 1371.2 1081C1279.7 1081 1188.3 1081 1097 1081C1005.7 1081 914.3 1081 823 1081C731.7 1081 640.3 1081 548.8 1081C457.3 1081 365.7 1081 274.2 1081C182.7 1081 91.3 1081 45.7 1081L0 1081Z" fill="#84e9b0"></path></svg>