<svg id="visual" viewBox="0 0 1920 1080" width="1920" height="1080" xmlns="http://www.w3.org/2000/svg" xmlns:xlink="http://www.w3.org/1999/xlink" version="1.1"><rect x="0" y="0" width="1920" height="1080" fill="#ffffff"></rect><g fill="none" stroke="#10b981" stroke-width="2"><circle r="56" cx="208" cy="589"></circle><circle r="24" cx="880" cy="215"></circle><circle r="31" cx="1824" cy="113"></circle><circle r="30" cx="663" cy="710"></circle><circle r="50" cx="1384" cy="982"></circle><circle r="31" cx="1466" cy="120"></circle><circle r="48" cx="1588" cy="639"></circle><circle r="43" cx="372" cy="536"></circle><circle r="35" cx="1479" cy="821"></circle><circle r="51" cx="1725" cy="603"></circle><circle r="26" cx="472" cy="171"></circle><circle r="44" cx="1210" cy="191"></circle><circle r="38" cx="609" cy="88"></circle><circle r="29" cx="1519" cy="994"></circle><circle r="31" cx="875" cy="65"></circle><circle r="49" cx="299" cy="442"></circle><circle r="32" cx="981" cy="811"></circle><circle r="28" cx="826" cy="405"></circle><circle r="43" cx="1004" cy="531"></circle><circle r="25" cx="1595" cy="172"></circle><circle r="28" cx="1711" cy="1012"></circle><circle r="28" cx="117" cy="785"></circle><circle r="47" cx="832" cy="966"></circle><circle r="38" cx="713" cy="471"></circle></g></svg>