<svg id="visual" viewBox="0 0 1920 1080" width="1920" height="1080" xmlns="http://www.w3.org/2000/svg" xmlns:xlink="http://www.w3.org/1999/xlink" version="1.1"><rect x="0" y="0" width="1920" height="1080" fill="#ffffff"></rect><path d="M0 789L45.7 794C91.3 799 182.7 809 274.2 804.7C365.7 800.3 457.3 781.7 548.8 783.8C640.3 786 731.7 809 823 808.5C914.3 808 1005.7 784 1097 786.7C1188.3 789.3 1279.7 818.7 1371.2 831.7C1462.7 844.7 1554.3 841.3 1645.8 825.5C1737.3 809.7 1828.7 781.3 1874.3 767.2L1920 753L1920 1081L1874.3 1081C1828.7 1081 1737.3 1081 1645.8 1081C1554.3 1081 1462.7 1081 1371.2 1081C1279.7 1081 1188.3 1081 1097 1081C1005.7 1081 914.3 1081 823 1081C731.7 1081 640.3 1081 548.8 1081C457.3 1081 365.7 1081 274.2 1081C182.7 1081 91.3 1081 45.7 1081L0 1081Z" fill="#84e9b0"></path><path d="M0 866L45.7 860.2C91.3 854.3 182.7 842.7 274.2 847.2C365.7 851.7 457.3 872.3 548.8 880.2C640.3 888 731.7 883 823 873C914.3 863 1005.7 848 1097 843.7C1188.3 839.3 1279.7 845.7 1371.2 836.5C1462.7 827.3 1554.3 802.7 1645.8 794.2C1737.3 785.7 1828.7 793.3 1874.3 797.2L1920 801L1920 1081L1874.3 1081C1828.7 1081 1737.3 1081 1645.8 1081C1554.3 1081 1462.7 1081 1371.2 1081C1279.7 1081 1188.3 1081 1097 1081C1005.7 1081 914.3 1081 823 1081C731.7 1081 640.3 1081 548.8 1081C457.3 1081 365.7 1081 274.2 1081C182.7 1081 91.3 1081 45.7 1081L0 1081Z" fill="#7cdfa9"></path><path d="M0 885L45.7 879.7C91.3 874.3 182.7 863.7 274.2 868.5C365.7 873.3 457.3 893.7 548.8 892.5C640.3 891.3 731.7 868.7 823 863.3C914.3 858 1005.7 870 1097 874C1188.3 878 1279.7 874 1371.2 874.5C1462.7 875 1554.3 880 1645.8 878C1737.3 876 1828.7 867 1874.3 862.5L1920 858L1920 1081L1874.3 1081C1828.7 1081 1737.3 1081 1645.8 1081C1554.3 1081 1462.7 1081 1371.2 1081C1279.7 1081 1188.3 1081 1097 1081C1005.7 1081 914.3 1081 823 1081C731.7 1081 640.3 1081 548.8 1081C457.3 1081 365.7 1081 274.2 1081C182.7 1081 91.3 1081 45.7 1081L0 1081Z" fill="#74d5a2"></path><path d="M0 923L45.7 917.7C91.3 912.3 182.7 901.7 274.2 907.5C365.7 913.3 457.3 935.7 548.8 946.3C640.3 957 731.7 956 823 956.5C914.3 957 1005.7 959 1097 949.7C1188.3 940.3 1279.7 919.7 1371.2 920C1462.7 920.3 1554.3 941.7 1645.8 944.8C1737.3 948 1828.7 933 1874.3 925.5L1920 918L1920 1081L1874.3 1081C1828.7 1081 1737.3 1081 1645.8 1081C1554.3 1081 1462.7 1081 1371.2 1081C1279.7 1081 1188.3 1081 1097 1081C1005.7 1081 914.3 1081 823 1081C731.7 1081 640.3 1081 548.8 1081C457.3 1081 365.7 1081 274.2 1081C182.7 1081 91.3 1081 45.7 1081L0 1081Z" fill="#6ccb9a"></path><path d="M0 937L45.7 944.2C91.3 951.3 182.7 965.7 274.2 977.3C365.7 989 457.3 998 548.8 1001.2C640.3 1004.3 731.7 1001.7 823 991.3C914.3 981 1005.7 963 1097 952.8C1188.3 942.7 1279.7 940.3 1371.2 947.8C1462.7 955.3 1554.3 972.7 1645.8 972.7C1737.3 972.7 1828.7 955.3 1874.3 946.7L1920 938L1920 1081L1874.3 1081C1828.7 1081 1737.3 1081 1645.8 1081C1554.3 1081 1462.7 1081 1371.2 1081C1279.7 1081 1188.3 1081 1097 1081C1005.7 1081 914.3 1081 823 1081C731.7 1081 640.3 1081 548.8 1081C457.3 1081 365.7 1081 274.2 1081C182.7 1081 91.3 1081 45.7 1081L0 1081Z" fill="#64c193"></path><path d="M0 1037L45.7 1036.8C91.3 1036.7 182.7 1036.3 274.2 1028.7C365.7 1021 457.3 1006 548.8 1003.8C640.3 1001.7 731.7 1012.3 823 1015.3C914.3 1018.3 1005.7 1013.7 1097 1009.5C1188.3 1005.3 1279.7 1001.7 1371.2 1003.3C1462.7 1005 1554.3 1012 1645.8 1016.5C1737.3 1021 1828.7 1023 1874.3 1024L1920 1025L1920 1081L1874.3 1081C1828.7 1081 1737.3 1081 1645.8 1081C1554.3 1081 1462.7 1081 1371.2 1081C1279.7 1081 1188.3 1081 1097 1081C1005.7 1081 914.3 1081 823 1081C731.7 1081 640.3 1081 548.8 1081C457.3 1081 365.7 1081 274.2 1081C182.7 1081 91.3 1081 45.7 1081L0 1081Z" fill="#5db78c"></path></svg>